<svg xmlns="http://www.w3.org/2000/svg" viewBox="0 0 466.9 222.88"><defs><style>.cls-1{fill:#647262;}.cls-2{fill:#919191;}</style></defs><title>summa-logo</title><g id="Capa_2" data-name="Capa 2"><g id="Capa_1-2" data-name="Capa 1"><g id="_Grupo_" data-name="&lt;Grupo&gt;"><g id="_Grupo_2" data-name="&lt;Grupo&gt;"><g id="_Grupo_3" data-name="&lt;Grupo&gt;"><path id="_Trazado_" data-name="&lt;Trazado&gt;" class="cls-1" d="M202.62,70c-6.82-3-10.64-4.28-10.71-8.74,0-3.77,3.32-6.36,8.33-6.36a21.71,21.71,0,0,1,13.56,4.54V50.25a41.68,41.68,0,0,0-13.24-2.31c-11.41,0-19,5.65-18.88,14.62a13,13,0,0,0,4.48,10c2,1.82,4.36,3.07,10.09,5.57,7.95,3.44,11.11,5.51,11.17,9.75,0,4.74-4.14,7.88-9.78,7.88-4.6,0-10.06-1.66-15.33-4.36v9.47a54.75,54.75,0,0,0,14.37,2c12.89,0,20.89-6.11,20.75-16.41C217.33,78.43,212.93,74.48,202.62,70Z"/><path id="_Trazado_2" data-name="&lt;Trazado&gt;" class="cls-1" d="M261.7,48.91l.08,30.62c0,9-2.94,14.94-11.21,15s-11.25-5.94-11.25-14.93L239.22,49l-10.85,0,.07,33.84c.05,14.22,8.28,20,22.13,20s22.08-5.92,22.08-20.09l-.09-33.86Z"/><path id="_Trazado_3" data-name="&lt;Trazado&gt;" class="cls-1" d="M326.42,47.94C315.6,69.86,315.58,69,309.47,82.17c-6.17-13.17-6.2-12.31-17-34.23h-.74c-3.78,18.24-7.52,36.74-11.42,54.89l10.75,0,5-26.13,12.89,26.17h1s7.9-16.27,12.51-26.22c2,8.58,3.65,17.37,5.39,26.18l10.75,0c-3.91-18.15-7.7-36.65-11.42-54.89Z"/><path id="_Trazado_4" data-name="&lt;Trazado&gt;" class="cls-1" d="M392.86,47.94C382,69.84,382,69,375.92,82.15c-6.18-13.17-6.2-12.31-17-34.21h-.75c-3.77,18.22-7.51,36.71-11.4,54.85l10.74,0,5-26.11,12.89,26.15h1s7.9-16.26,12.51-26.2c2,8.57,3.64,17.36,5.39,26.16l10.73,0c-3.9-18.14-7.68-36.63-11.41-54.85Z"/><path id="_Trazado_compuesto_" data-name="&lt;Trazado compuesto&gt;" class="cls-1" d="M440.37,47.94h-.63l-26.57,55h10.3l5.63-12.68h20.59L455.38,103H466.9ZM432,83.81l7.42-16.7,7.38,16.7Z"/></g><path id="_Trazado_5" data-name="&lt;Trazado&gt;" class="cls-1" d="M2.05,92.94A75.44,75.44,0,1,1,58,148.85l23.59-23.58-6.09-6.09L48.63,146a73,73,0,0,1-8.74-4l41.65-41.66-6.09-6.09L32.33,137.38a76.75,76.75,0,0,1-7.1-5.62L81.54,75.44l-6.09-6.09L19.14,125.66a75.21,75.21,0,0,1-5.63-7.1l68-68-6.09-6.1L8.88,111a74.52,74.52,0,0,1-4-8.74L81.54,25.6l-6.09-6.09Z"/></g><g id="_Grupo_4" data-name="&lt;Grupo&gt;"><g id="_Grupo_5" data-name="&lt;Grupo&gt;"><path id="_Trazado_6" data-name="&lt;Trazado&gt;" class="cls-2" d="M221.39,189.79V169.4H200.57a27.81,27.81,0,0,1,20.82,20.39"/><path id="_Trazado_7" data-name="&lt;Trazado&gt;" class="cls-2" d="M187.6,169.4H166.78v20.39A27.81,27.81,0,0,1,187.6,169.4"/><path id="_Trazado_8" data-name="&lt;Trazado&gt;" class="cls-2" d="M221.39,202.48a27.84,27.84,0,0,1-20.82,20.4h20.82Z"/><path id="_Trazado_9" data-name="&lt;Trazado&gt;" class="cls-2" d="M166.78,202.48v20.4H187.6a27.84,27.84,0,0,1-20.82-20.4"/><path id="_Trazado_compuesto_2" data-name="&lt;Trazado compuesto&gt;" class="cls-2" d="M268.44,197.13c3.49-.57,5.75-3,5.75-5.71,0-2.51-2-4.57-4.86-5.22a26.07,26.07,0,0,0-5.56-.37h-4.19v20.71h4.15v-9s5.37,6.27,5.9,6.81A8.17,8.17,0,0,0,271.8,206a6.1,6.1,0,0,0,3.2.5h2.64a15.84,15.84,0,0,1-1.7-1.45c-.76-.76-5.94-6.07-7.5-8m-4.71-1.35V188.2c.13,0,.5,0,.72,0,3.52,0,5.28,1.21,5.28,3.61s-2.14,4-5.48,4a3.39,3.39,0,0,1-.52,0m-14.37,7.93a7.4,7.4,0,0,1-3.09.55c-4.56,0-7.53-3.17-7.53-7.93s3.14-8.15,7.91-8.15a10.33,10.33,0,0,1,5.57,1.65V186a22.55,22.55,0,0,0-5.29-.67c-7.5,0-12.8,4.68-12.8,11.23,0,6.3,4.85,10.58,12,10.58a19.31,19.31,0,0,0,7.34-1.47v-9.73h-4.09Zm84-18.59c-6.8,0-11.58,4.44-11.58,10.84,0,6.57,4.75,11.19,11.47,11.19s11.36-4.56,11.36-10.91c0-6.51-4.65-11.12-11.25-11.12m0,19c-4,0-6.91-3.54-6.91-8.43,0-4.49,2.86-7.72,6.82-7.72s6.67,3.55,6.67,8.4c0,4.41-2.82,7.75-6.58,7.75m-20.49-18a26,26,0,0,0-5.56-.37h-4.19v20.71h4.16v-8.49a17.25,17.25,0,0,0,6.26-1.14h0a6.11,6.11,0,0,0,4.2-5.49c0-2.51-2-4.57-4.85-5.22m-5.08,9.61a3.21,3.21,0,0,1-.51,0V188.2c.14,0,.51,0,.71,0,3.52,0,5.28,1.21,5.28,3.61s-2.14,4-5.48,4m-14.43-10,0,11.86c0,3.5-1.13,5.8-4.35,5.82s-4.36-2.31-4.36-5.8l0-11.86h-4.2l0,13.12c0,5.5,3.2,7.76,8.59,7.76s8.55-2.29,8.54-7.79l0-13.13Zm94.92,11.29c3.49-.55,5.74-3,5.74-5.69,0-2.52-2-4.58-4.85-5.21a25.13,25.13,0,0,0-5.56-.38h-4.17v20.69h4.15v-9s5.35,6.27,5.88,6.81a8.3,8.3,0,0,0,2.16,1.69,6.17,6.17,0,0,0,3.21.5h2.63a12.94,12.94,0,0,1-1.69-1.45c-.77-.76-5.94-6.06-7.5-8m-4.69-1.32v-7.6h.7c3.52,0,5.28,1.21,5.28,3.6s-2.14,4-5.47,4h-.51m31.44,7.9a7.33,7.33,0,0,1-3.07.55c-4.56,0-7.54-3.16-7.54-7.93s3.15-8.13,7.91-8.13a10.22,10.22,0,0,1,5.56,1.66V186a21.48,21.48,0,0,0-5.29-.67c-7.48,0-12.77,4.66-12.77,11.2,0,6.3,4.84,10.58,12,10.58a19.24,19.24,0,0,0,7.32-1.47v-9.71H415ZM460.89,194c-2.77-1.18-4.31-1.71-4.35-3.49,0-1.5,1.35-2.51,3.39-2.51a8.91,8.91,0,0,1,5.49,1.79V186.2a16.8,16.8,0,0,0-5.37-.93c-4.63,0-7.7,2.25-7.66,5.81a5.06,5.06,0,0,0,1.82,4,14.27,14.27,0,0,0,4.09,2.21c3.23,1.37,4.52,2.2,4.54,3.88,0,1.88-1.69,3.13-4,3.13a14.51,14.51,0,0,1-6.22-1.73v3.77a22.91,22.91,0,0,0,5.82.79c5.24,0,8.47-2.43,8.43-6.51,0-3.2-1.82-4.77-6-6.54m-24.63-8.89c-6.8,0-11.56,4.43-11.56,10.81,0,6.57,4.73,11.19,11.44,11.19s11.36-4.56,11.36-10.9c0-6.51-4.65-11.1-11.24-11.1m0,19c-4,0-6.9-3.53-6.9-8.42,0-4.48,2.86-7.7,6.81-7.7s6.68,3.53,6.68,8.38c0,4.4-2.82,7.74-6.59,7.74m-72.33-19-10.49,21.35h4l2.25-4.93h8.14l2.25,4.93h4.56l-10.51-21.35Zm-3.06,13.89,2.91-6.44,2.95,6.44Z"/></g><g id="_Grupo_6" data-name="&lt;Grupo&gt;"><path id="_Trazado_10" data-name="&lt;Trazado&gt;" class="cls-2" d="M11.94,188.54h1.8v12.14a4.72,4.72,0,0,1-.5,2.17,4.88,4.88,0,0,1-1.31,1.62,5.82,5.82,0,0,1-1.88,1,7,7,0,0,1-2.15.34,6.55,6.55,0,0,1-2.84-.63,5.14,5.14,0,0,1-2.16-1.93,5.7,5.7,0,0,1-.83-3.12V188.54H4.18v11.58a3.44,3.44,0,0,0,1.15,2.77,4.1,4.1,0,0,0,2.73,1,4.51,4.51,0,0,0,1.88-.41,3.6,3.6,0,0,0,1.45-1.23,3.31,3.31,0,0,0,.55-1.92Z"/><path id="_Trazado_11" data-name="&lt;Trazado&gt;" class="cls-2" d="M17.09,192.82H19V195a7.11,7.11,0,0,1,1.24-1.45,5.61,5.61,0,0,1,1.42-.86,4.14,4.14,0,0,1,1.49-.28,3.73,3.73,0,0,1,2,.55,3.91,3.91,0,0,1,1.47,1.59,5.12,5.12,0,0,1,.55,2.42v8.59H25.24v-8.81a2.19,2.19,0,0,0-.37-1.25,2.35,2.35,0,0,0-1-.83,3,3,0,0,0-1.29-.29,3.33,3.33,0,0,0-1.7.5,3.67,3.67,0,0,0-1.37,1.53A5.39,5.39,0,0,0,19,198.9v6.66H17.09Z"/><path id="_Trazado_compuesto_3" data-name="&lt;Trazado compuesto&gt;" class="cls-2" d="M38.59,197.72c0-1.55-.35-2.55-1.05-3a5,5,0,0,0-2.8-.69,3.15,3.15,0,0,0-1,.25,3.52,3.52,0,0,0-1.19.77,2.51,2.51,0,0,0-.72,1.34L29.87,196q1-3.56,5.63-3.56a6.48,6.48,0,0,1,2.68.49,3.44,3.44,0,0,1,1.6,1.45,4.34,4.34,0,0,1,.53,2.22v7.05a4.82,4.82,0,0,0,.13,1,4.91,4.91,0,0,0,.31,1h-2l-.39-2.15a3.64,3.64,0,0,1-1.79,1.78,6,6,0,0,1-2.47.53,8.06,8.06,0,0,1-1.3-.12,3.42,3.42,0,0,1-.84-.23A4.21,4.21,0,0,1,30.18,204a3.26,3.26,0,0,1-.62-1.89,3.79,3.79,0,0,1,.32-1.47,4.68,4.68,0,0,1,.91-1.4,4.32,4.32,0,0,1,1.4-1,4.61,4.61,0,0,1,1.71-.45l1.14,0,2,0a13.06,13.06,0,0,1,1.53.05m0,1.38a35.1,35.1,0,0,0-3.58.17,3.64,3.64,0,0,0-2.26.85,3.43,3.43,0,0,0-.74,1,2.27,2.27,0,0,0-.26,1,1.8,1.8,0,0,0,.72,1.43,2.89,2.89,0,0,0,1.84.58,6,6,0,0,0,2.16-.51A3.76,3.76,0,0,0,38,202.07a6.34,6.34,0,0,0,.56-3"/><path id="_Trazado_compuesto_4" data-name="&lt;Trazado compuesto&gt;" class="cls-2" d="M62.51,201.87l1.72.41A6.71,6.71,0,0,1,63,204.34a4.56,4.56,0,0,1-1.49,1.11,5.43,5.43,0,0,1-1.42.44,12.2,12.2,0,0,1-1.41.08,5.63,5.63,0,0,1-3-1.05,5.52,5.52,0,0,1-1.86-2.36,7.85,7.85,0,0,1-.61-3.06,8.73,8.73,0,0,1,.36-2.44,7.78,7.78,0,0,1,1.05-2.19,5.84,5.84,0,0,1,1.66-1.59,4.85,4.85,0,0,1,2.2-.67h.31a5.64,5.64,0,0,1,2.41.48,5,5,0,0,1,1.79,1.36,6.28,6.28,0,0,1,1.1,2.14,9,9,0,0,1,.38,2.71h-9.1a.53.53,0,0,1,0,.13,1.16,1.16,0,0,0,0,.15,5.23,5.23,0,0,0,.56,2.49,4.12,4.12,0,0,0,1.46,1.62,3.58,3.58,0,0,0,1.89.56,3.45,3.45,0,0,0,1.94-.61,3.92,3.92,0,0,0,1.4-1.77m-.19-4a4.07,4.07,0,0,0-1.13-2.74,3.25,3.25,0,0,0-2.34-.95,3.19,3.19,0,0,0-1.61.45,3.61,3.61,0,0,0-1.3,1.28,4.13,4.13,0,0,0-.63,2Z"/><path id="_Trazado_12" data-name="&lt;Trazado&gt;" class="cls-2" d="M66.89,192.82h1.94v2.56a4.9,4.9,0,0,1,1-1.46,4.24,4.24,0,0,1,1.29-.9,3.56,3.56,0,0,1,3.65.45,4,4,0,0,1,1.44,2.09,4.43,4.43,0,0,1,1-1.52,4.55,4.55,0,0,1,1.5-1,4.19,4.19,0,0,1,1.64-.34A3.53,3.53,0,0,1,83,193.85a4.17,4.17,0,0,1,.85,1.48,6,6,0,0,1,.31,2v8.22H82V197a2.59,2.59,0,0,0-.34-1.36,2.3,2.3,0,0,0-.91-.87,2.52,2.52,0,0,0-1.21-.3,2.6,2.6,0,0,0-1.44.42A3,3,0,0,0,77,196.17a5,5,0,0,0-.43,2.15v7.24H74.66v-8.22a2.76,2.76,0,0,0-.8-2.07,2.59,2.59,0,0,0-1.85-.76,2.85,2.85,0,0,0-1.45.41,3,3,0,0,0-1.12,1.23,4.32,4.32,0,0,0-.41,2v7.43H66.89Z"/><path id="_Trazado_compuesto_5" data-name="&lt;Trazado compuesto&gt;" class="cls-2" d="M87,192.82H88.7v2.38a4.22,4.22,0,0,1,4.11-2.79h.75a4,4,0,0,1,2.16,1.32,6.83,6.83,0,0,1,1.38,2.52,10,10,0,0,1,.47,3,9.5,9.5,0,0,1-.25,2.22,7.45,7.45,0,0,1-.75,2A5,5,0,0,1,95.31,205a4.18,4.18,0,0,1-1.75.8,5.15,5.15,0,0,1-1,.1,4.55,4.55,0,0,1-3.69-2v5.82H87Zm1.93,4.73v2.77a3.75,3.75,0,0,0,.48,1.87,3.83,3.83,0,0,0,1.2,1.32A2.6,2.6,0,0,0,92,204a3.58,3.58,0,0,0,1.63-.35,2.73,2.73,0,0,0,1.18-1.45,7.71,7.71,0,0,0,.48-3.09,8.42,8.42,0,0,0-.2-2,5,5,0,0,0-.61-1.52,2.94,2.94,0,0,0-1-1,2.48,2.48,0,0,0-1.31-.34,3.23,3.23,0,0,0-2.11.91,3.46,3.46,0,0,0-1.21,2.4"/><path id="_Trazado_13" data-name="&lt;Trazado&gt;" class="cls-2" d="M99.81,192.82h1.72v3c.09-.23.24-.55.42-1a7.38,7.38,0,0,1,.66-1.16,3.17,3.17,0,0,1,1-.92,2.63,2.63,0,0,1,1.44-.39,5.86,5.86,0,0,1,1,.08v2h-.54a3.11,3.11,0,0,0-2,.7,4.21,4.21,0,0,0-1.29,1.69,4.73,4.73,0,0,0-.44,1.86v6.87h-1.9Z"/><path id="_Trazado_compuesto_6" data-name="&lt;Trazado compuesto&gt;" class="cls-2" d="M115.48,201.87l1.72.41a6.9,6.9,0,0,1-1.25,2.06,4.78,4.78,0,0,1-1.49,1.11,5.6,5.6,0,0,1-1.43.44,12.15,12.15,0,0,1-1.4.08,5.56,5.56,0,0,1-4.9-3.41,7.84,7.84,0,0,1-.6-3.06,8.38,8.38,0,0,1,.36-2.44,7.52,7.52,0,0,1,1.05-2.19,5.59,5.59,0,0,1,1.66-1.59,4.81,4.81,0,0,1,2.19-.67h.31a5.67,5.67,0,0,1,2.41.48,4.9,4.9,0,0,1,1.79,1.36,6.1,6.1,0,0,1,1.1,2.14,9,9,0,0,1,.39,2.71h-9.1a.84.84,0,0,0,0,.13,1.16,1.16,0,0,0,0,.15,5.35,5.35,0,0,0,.56,2.49,4.12,4.12,0,0,0,1.46,1.62,3.6,3.6,0,0,0,1.89.56,3.51,3.51,0,0,0,2-.61,3.84,3.84,0,0,0,1.39-1.77m-.18-4a4.17,4.17,0,0,0-1.13-2.74,3.27,3.27,0,0,0-2.35-.95,3.13,3.13,0,0,0-1.6.45,3.56,3.56,0,0,0-1.31,1.28,4.13,4.13,0,0,0-.62,2Z"/><path id="_Trazado_14" data-name="&lt;Trazado&gt;" class="cls-2" d="M127.81,196a3.54,3.54,0,0,0-.85-1.13,3.6,3.6,0,0,0-1-.64,2.76,2.76,0,0,0-.86-.18h-.48a3.69,3.69,0,0,0-1.41.27,2.81,2.81,0,0,0-1,.73,1.48,1.48,0,0,0-.38.95,1.4,1.4,0,0,0,.79,1.34,10,10,0,0,0,2.55.74c1.17.21,2.08.4,2.71.56a3,3,0,0,1,1.52.92,2.88,2.88,0,0,1,.61,1,3.63,3.63,0,0,1,.2,1.22,3.28,3.28,0,0,1-.66,1.93,4.56,4.56,0,0,1-1.76,1.47,5.5,5.5,0,0,1-2.47.56h-.56a8.64,8.64,0,0,1-1.94-.28,5.7,5.7,0,0,1-2.26-1.09,3.16,3.16,0,0,1-1.24-2.32l1.73-.38a2.93,2.93,0,0,0,1.7,1.86,7.13,7.13,0,0,0,2.58.45,4.16,4.16,0,0,0,1.52-.34,2.41,2.41,0,0,0,1-.73,1.44,1.44,0,0,0,.33-.88,1.54,1.54,0,0,0-.31-.91,2,2,0,0,0-.92-.63,9.89,9.89,0,0,0-2.28-.6c-1.09-.2-1.86-.36-2.29-.48a4.23,4.23,0,0,1-1.42-.72,2.62,2.62,0,0,1-1-1.54c0-.07,0-.13,0-.17s0-.1,0-.18,0-.16,0-.28,0-.21,0-.3a3.94,3.94,0,0,1,1-2.55,5.22,5.22,0,0,1,3.54-1.45,8.67,8.67,0,0,1,3,.56,4,4,0,0,1,2.23,2.59Z"/><path id="_Trazado_compuesto_7" data-name="&lt;Trazado compuesto&gt;" class="cls-2" d="M141.15,197.72c0-1.55-.36-2.55-1.05-3a5,5,0,0,0-2.8-.69,3.2,3.2,0,0,0-1,.25,3.39,3.39,0,0,0-1.18.77,2.52,2.52,0,0,0-.73,1.34l-1.94-.41q1-3.56,5.63-3.56a6.48,6.48,0,0,1,2.68.49,3.51,3.51,0,0,1,1.61,1.45,4.45,4.45,0,0,1,.53,2.22v7.05a4.72,4.72,0,0,0,.12,1,5.64,5.64,0,0,0,.32,1h-2l-.38-2.15a3.66,3.66,0,0,1-1.8,1.78,5.88,5.88,0,0,1-2.46.53,8,8,0,0,1-1.3-.12,3.42,3.42,0,0,1-.84-.23,4.21,4.21,0,0,1-1.82-1.42,3.19,3.19,0,0,1-.62-1.89,3.79,3.79,0,0,1,.32-1.47,4.65,4.65,0,0,1,.9-1.4,4.36,4.36,0,0,1,1.41-1,4.61,4.61,0,0,1,1.71-.45l1.13,0,2,0a13.06,13.06,0,0,1,1.53.05m0,1.38a35.31,35.31,0,0,0-3.59.17,3.6,3.6,0,0,0-2.25.85,3.43,3.43,0,0,0-.74,1,2.29,2.29,0,0,0-.27,1,1.78,1.78,0,0,0,.73,1.43,2.87,2.87,0,0,0,1.84.58,6.06,6.06,0,0,0,2.16-.51,3.73,3.73,0,0,0,1.55-1.55,6.33,6.33,0,0,0,.57-3"/></g></g></g></g></g></svg>